<svg xmlns="http://www.w3.org/2000/svg" viewBox="0 0 247.47 168.43"><title>Asset 12</title><g id="Layer_2" data-name="Layer 2"><g id="Layer_2-2" data-name="Layer 2"><polyline points="247.47 0 247.47 168.43 0 168.43 0 0" style="fill:#701527"/><path d="M77.77,21.68,39.68,61.89l38.1,40.21,38.1-40.21Zm0,65.87L53.47,61.89l24.3-25.65,24.3,25.65Z" style="fill:#fff"/><path d="M169.69,21.68,131.6,61.89l38.1,40.21,38.1-40.21Zm-9.61,24.71,9.61-10.15L194,61.89l-24.3,25.65-24.3-25.65,14.69-15.51" style="fill:#fff"/><polygon points="152.22 39.01 124.17 10.87 95.13 40 104.1 49.47 124.17 29.34 143.26 48.49 150.69 55.95 156.62 61.89 150.84 67.69 159.8 77.13 175.03 61.89 152.22 39.01" style="fill:#e6a915"/><polygon points="124.17 94.44 91.72 61.89 97.03 56.56 88.06 47.09 73.31 61.89 124.17 112.91 152.75 84.24 143.76 74.78 124.17 94.44" style="fill:#e6a915"/><text transform="translate(36.8 153.28)" style="font-size:48px;fill:#fff;font-family:Herculanum, Herculanum">ZHIBSEL</text></g></g></svg>